<svg version="1.1" id="Layer_1" xmlns="http://www.w3.org/2000/svg" xmlns:xlink="http://www.w3.org/1999/xlink" x="0px" y="0px"
	 width="100%" viewBox="0 0 310 294" enable-background="new 0 0 310 294" xml:space="preserve">
<path fill="#FEFEFE" opacity="1.000000" stroke="none" 
	d="
M311.000000,136.000000 
	C311.000000,187.999985 310.956787,239.500107 311.097443,290.999695 
	C311.106781,294.424866 310.424072,295.099548 306.999908,295.095520 
	C206.333405,294.977661 105.666710,294.977661 5.000195,295.095520 
	C1.576300,295.099518 0.900053,294.424286 0.904336,290.999969 
	C1.023592,195.666809 1.023579,100.333427 0.904368,5.000256 
	C0.900087,1.576407 1.575608,0.900439 4.999975,0.904450 
	C105.666489,1.022353 206.333191,1.022338 306.999695,0.904494 
	C310.423370,0.900486 311.109863,1.574003 311.098145,5.000144 
	C310.949066,48.499695 311.000000,91.999939 311.000000,136.000000 
z"/>
<path fill="#301349" opacity="1.000000" stroke="none" 
	d="
M48.168999,137.244507 
	C39.454365,124.650414 32.592602,110.994041 24.648424,97.978828 
	C20.234659,90.747589 17.534765,83.053490 16.500971,74.653427 
	C13.897114,53.495911 31.464117,29.341906 52.530472,25.352516 
	C56.784607,24.546902 61.066021,24.071905 65.423515,24.074703 
	C124.888641,24.112890 184.354446,24.256519 243.818542,24.004841 
	C261.597137,23.929596 275.160736,31.286596 286.035950,45.106323 
	C286.140228,45.878513 286.303436,46.285263 286.929810,46.768883 
	C287.238220,46.910954 287.086090,46.914135 287.103271,46.840019 
	C287.198792,47.121220 287.375092,47.418430 287.861755,47.818554 
	C288.074249,47.979485 288.004181,47.980755 288.022217,47.950706 
	C297.021912,64.708687 296.736511,81.266243 286.726257,97.536255 
	C282.639008,104.179413 279.509552,111.393990 274.425598,117.846764 
	C265.594086,117.121414 262.465546,123.357307 259.055969,129.673340 
	C258.566040,131.324417 257.674469,132.410202 257.086823,134.016724 
	C256.508484,135.379639 255.990891,136.381607 254.767212,137.238800 
	C253.534866,137.559448 252.360626,137.387329 252.220291,139.157562 
	C252.022827,140.344955 251.808777,141.193939 250.955231,142.108002 
	C247.673141,143.496216 246.442734,146.123566 245.311340,149.210190 
	C244.991852,151.143478 244.563934,152.673767 243.229401,154.154449 
	C242.186951,154.994019 241.281448,155.503708 240.629883,156.699066 
	C240.048096,157.590591 239.710815,158.262817 239.808990,159.367950 
	C239.897156,160.299286 239.838913,160.919922 239.539093,161.828674 
	C237.740479,163.862289 236.826859,166.159546 234.897842,168.093765 
	C234.059647,168.884552 233.442337,169.445908 233.117889,170.600922 
	C232.110886,173.425873 231.144562,175.921204 229.872009,178.649170 
	C229.229111,179.663422 228.522156,180.247955 228.286469,181.490158 
	C228.090027,182.510223 227.901978,183.181549 227.462967,184.150208 
	C222.976440,192.192047 218.692886,199.922760 219.955078,209.666534 
	C220.254211,212.697327 219.033508,214.892044 217.785706,217.066772 
	C210.575119,229.633698 203.292877,242.161011 195.961731,254.655930 
	C184.284485,274.558167 156.885300,283.354980 136.735321,273.378967 
	C135.984238,273.007080 135.130569,272.945129 133.975464,272.543945 
	C133.597839,272.441833 133.818726,272.218384 133.734009,272.350677 
	C133.289520,270.714996 131.482422,271.151276 130.141174,270.254456 
	C129.820679,270.118927 129.930664,270.083038 129.932037,270.140869 
	C129.797516,269.845428 129.579742,269.553192 129.033127,269.191986 
	C121.558395,263.755035 116.263145,256.843964 111.869835,249.102600 
	C103.253105,233.919250 94.501427,218.812500 85.711014,203.317978 
	C88.510948,200.991287 90.143608,203.367401 92.076286,204.805252 
	C93.192459,205.635666 94.145920,207.528473 95.797020,206.366562 
	C97.207649,205.373871 96.539307,203.594986 96.196236,202.177307 
	C94.432228,194.888000 91.702240,187.962265 87.934555,181.104523 
	C87.053024,180.207245 86.442093,179.528946 85.739853,178.498154 
	C85.113075,177.086334 85.382248,175.665451 83.936974,174.646057 
	C83.325691,174.183365 83.004128,173.880264 82.495056,173.281967 
	C81.538895,171.798599 81.105354,170.493088 81.103195,168.711548 
	C80.901306,165.012039 79.587196,162.168991 76.950882,159.572937 
	C76.464249,158.940155 76.255783,158.537537 75.994766,157.792206 
	C75.554993,155.696289 74.575325,154.290619 73.086578,152.800873 
	C72.715630,152.375458 72.577675,152.194366 72.271660,151.713318 
	C70.167534,146.135910 66.949417,141.681976 62.893738,137.426529 
	C62.155903,137.104645 61.748066,136.889938 61.086040,136.423416 
	C60.716595,135.986450 60.614704,135.775635 60.449646,135.220062 
	C58.903034,128.366928 53.944626,124.362434 49.496735,120.060852 
	C47.781391,118.401932 46.377586,119.314659 46.365807,121.629189 
	C46.349636,124.806946 47.498856,127.741783 48.569946,130.692810 
	C49.330601,132.788544 50.674194,134.991745 48.168999,137.244507 
z"/>
<path fill="#252232" opacity="1.000000" stroke="none" 
	d="
M133.810837,272.707214 
	C135.952469,271.397797 137.711151,273.100037 139.704407,273.752747 
	C161.953857,281.038910 186.326782,271.123108 196.827621,250.673859 
	C202.798523,239.046143 209.971481,228.037170 216.547104,216.717010 
	C217.619080,214.871552 218.887100,213.057495 219.019516,210.421783 
	C219.940765,207.241150 222.275543,205.204468 223.323471,202.071350 
	C224.247543,200.520706 225.038681,199.302567 226.766479,198.546783 
	C227.930099,198.553253 228.571350,198.926392 229.311279,199.822647 
	C229.863129,203.449829 228.670166,206.162369 226.049347,208.656708 
	C224.820709,209.075882 224.371124,209.666061 224.185730,210.853577 
	C223.194153,211.726837 223.125626,212.825134 222.358810,213.829697 
	C214.199875,228.083817 206.224304,242.104431 198.177567,256.084076 
	C184.810898,279.306030 155.893997,285.156647 133.810837,272.707214 
z"/>
<path fill="#DDDDDE" opacity="1.000000" stroke="none" 
	d="
M226.084427,208.863007 
	C226.856720,206.179169 227.993378,203.506027 229.189072,200.464264 
	C229.152649,199.139740 229.718216,198.425507 230.296051,197.368042 
	C231.918304,194.163803 234.501373,191.778030 234.804947,187.943207 
	C239.170990,184.320663 240.799561,179.416199 242.941254,174.446671 
	C243.088821,173.894836 243.164108,173.678345 243.406952,173.161285 
	C245.665207,171.103516 247.482193,169.152008 248.300064,166.077942 
	C251.278381,161.008041 254.576218,156.522003 257.000488,151.124176 
	C258.697296,147.488235 261.293823,144.812134 263.045105,141.215744 
	C263.974731,139.520370 264.606964,138.066376 265.267395,136.241638 
	C266.317078,134.491592 267.419220,133.281540 269.423370,132.675568 
	C269.811859,140.259766 265.903076,146.570068 262.786621,153.047211 
	C260.482727,157.835526 258.243378,163.072250 255.356613,167.067825 
	C252.021149,171.684433 249.790115,176.955368 246.413071,181.555038 
	C242.277542,187.187805 238.873032,193.593506 234.633301,199.251846 
	C232.142212,202.576431 230.947083,207.208801 226.084427,208.863007 
z"/>
<path fill="#282434" opacity="1.000000" stroke="none" 
	d="
M269.869202,132.341080 
	C268.758453,133.769806 267.736755,134.876648 266.412537,136.104919 
	C265.386444,136.233795 264.758667,135.970856 263.964539,135.280487 
	C263.363129,133.286789 264.387299,131.936462 265.113007,130.158997 
	C266.087341,128.252151 267.176086,126.807594 268.175903,124.913803 
	C269.715576,122.511101 270.277527,119.896362 272.668579,118.114578 
	C279.031067,109.453636 284.181976,100.304291 288.775970,90.988937 
	C294.839142,78.694550 294.612213,65.702652 289.446655,52.905014 
	C288.894135,51.536114 288.500519,50.103062 288.036682,48.310215 
	C295.702942,59.141209 298.278931,71.341209 294.967712,84.614220 
	C291.757233,97.483482 283.461212,107.783226 277.335541,119.178543 
	C276.239532,121.217361 275.017426,123.188354 273.730255,125.523834 
	C273.481079,126.570038 273.000580,127.048004 272.282898,127.771576 
	C271.358917,129.357193 270.658569,130.688187 269.869202,132.341080 
z"/>
<path fill="#3B1F52" opacity="1.000000" stroke="none" 
	d="
M47.890823,137.738983 
	C49.627773,134.477951 47.548542,132.106262 46.822098,129.492233 
	C45.753117,125.645592 42.602428,120.273064 46.288517,118.116577 
	C50.303673,115.767563 53.188995,121.442619 55.446308,124.456284 
	C57.761875,127.547729 62.086655,129.691788 61.330070,134.775421 
	C59.198463,136.218994 58.252983,134.907318 57.142975,133.270630 
	C56.864250,132.626251 56.795650,132.297409 56.663891,131.998138 
	C55.713573,129.839706 54.371559,127.117920 51.872868,128.162842 
	C49.780140,129.038010 51.462788,131.729584 52.010292,133.473618 
	C52.790627,135.959320 52.895042,138.733765 55.003281,141.062408 
	C56.595795,143.073486 56.857479,145.473953 58.706680,147.368179 
	C59.195042,148.962753 59.170300,150.208359 58.475170,151.767029 
	C57.807587,152.433563 57.308090,152.539383 56.422981,152.203751 
	C53.365982,147.352066 50.646233,142.714737 47.890823,137.738983 
z"/>
<path fill="#3B1F52" opacity="1.000000" stroke="none" 
	d="
M87.794754,180.232422 
	C91.434113,181.641464 91.258713,185.403381 92.664467,188.191513 
	C95.106339,193.034622 96.801338,198.219498 97.870728,203.549286 
	C98.212112,205.250687 98.581482,207.380203 96.617371,208.499573 
	C94.434143,209.743851 93.382607,207.683548 92.063744,206.558746 
	C90.348480,205.095840 89.172363,202.785400 86.011139,202.976990 
	C83.387756,199.316833 81.159073,195.671768 78.869850,191.690552 
	C78.341499,190.072845 79.117340,189.333130 80.364746,188.489349 
	C81.859734,188.181335 82.796173,188.461487 83.540894,189.828384 
	C83.736595,193.768951 86.767281,195.407272 88.716759,197.747498 
	C89.231651,198.365601 90.041016,198.851746 90.905510,198.340164 
	C91.710915,197.863571 91.792015,196.971771 91.704903,196.154114 
	C91.352173,192.843384 90.042351,189.821579 88.579544,186.520309 
	C88.239784,186.078354 88.098961,185.905746 87.780670,185.452454 
	C87.532051,184.964172 87.460884,184.756592 87.367050,184.225006 
	C87.389160,183.692688 87.433929,183.484375 87.645798,183.011627 
	C88.199028,182.667313 88.328934,182.569504 88.208679,182.447754 
	C88.083855,182.321304 87.964676,182.255173 87.685654,181.983337 
	C87.433861,181.292175 87.458588,180.878296 87.794754,180.232422 
z"/>
<path fill="#4B315F" opacity="1.000000" stroke="none" 
	d="
M81.262924,188.669388 
	C80.412323,189.548050 79.757744,190.144394 78.956238,191.047577 
	C71.253990,178.465851 63.698669,165.577271 56.114536,152.339050 
	C56.615841,151.965897 57.145950,151.942383 58.071804,151.876801 
	C59.341873,151.062927 60.348671,151.032898 61.751541,151.485245 
	C63.188198,152.802780 63.287861,154.353287 63.880135,156.082367 
	C65.168289,159.813400 66.297646,163.234695 69.259155,166.024689 
	C70.049789,166.653564 70.454788,167.172485 70.841278,168.089111 
	C71.211861,169.363266 71.264046,170.407242 72.083298,171.493378 
	C72.796364,172.548508 73.210854,173.445175 74.067932,174.400177 
	C74.369507,174.790176 74.480621,174.954147 74.735672,175.377930 
	C75.235657,176.355682 75.675575,177.016586 76.414864,177.856201 
	C76.723770,178.289078 76.836449,178.473175 77.099197,178.949341 
	C78.697647,182.269150 81.411316,184.714523 81.262924,188.669388 
z"/>
<path fill="#252232" opacity="1.000000" stroke="none" 
	d="
M129.986847,270.403137 
	C131.369995,269.994659 132.917969,269.873566 133.643860,272.102753 
	C132.483856,271.884430 131.318420,271.285919 129.986847,270.403137 
z"/>
<path fill="#DDDDDE" opacity="1.000000" stroke="none" 
	d="
M272.398407,128.028503 
	C272.211243,127.264153 272.024841,126.347176 273.305298,125.910316 
	C275.649567,127.514481 274.127716,127.746300 272.398407,128.028503 
z"/>
<path fill="#DDDDDE" opacity="1.000000" stroke="none" 
	d="
M222.538727,214.034058 
	C221.868637,212.826172 222.684875,212.088989 223.750412,211.228333 
	C224.159988,212.289780 224.145844,213.400314 222.538727,214.034058 
z"/>
<path fill="#282434" opacity="1.000000" stroke="none" 
	d="
M287.148804,46.595535 
	C286.910706,46.630451 286.583160,46.349949 286.183380,45.742371 
	C286.427216,45.703564 286.743317,45.991837 287.148804,46.595535 
z"/>
<path fill="#282434" opacity="1.000000" stroke="none" 
	d="
M288.036652,47.699711 
	C287.800690,47.752144 287.527161,47.524799 287.187042,47.031685 
	C287.413330,46.983921 287.706177,47.201927 288.036652,47.699711 
z"/>
<path fill="#252232" opacity="1.000000" stroke="none" 
	d="
M128.899628,269.328247 
	C129.097534,269.264557 129.408905,269.467102 129.826843,269.934174 
	C129.626633,269.997284 129.319839,269.795898 128.899628,269.328247 
z"/>
<path fill="#02C2FB" opacity="1.000000" stroke="none" 
	d="
M153.254211,186.485901 
	C127.601234,191.548492 100.568535,176.028595 90.414948,150.970108 
	C75.961456,115.299698 99.829414,75.162155 138.490646,70.741058 
	C139.238251,70.658615 139.537628,70.555801 140.041809,70.385063 
	C143.204895,70.422646 146.129044,70.428772 149.472565,70.566879 
	C150.090225,70.864273 150.288528,71.029694 150.668793,71.536743 
	C151.671539,77.439934 151.374481,82.996597 150.707001,88.925323 
	C148.073242,89.463478 145.510178,89.628250 142.509216,89.806259 
	C141.878021,89.740395 141.684723,89.661278 141.223969,89.745331 
	C122.615097,92.502205 108.677910,105.567131 105.993591,122.683258 
	C103.271393,140.040939 111.743813,156.339264 127.707855,164.450562 
	C135.435699,168.377060 143.679306,168.668106 152.538696,167.859146 
	C155.756805,173.835846 154.880310,179.966904 153.254211,186.485901 
z"/>
<path fill="#503664" opacity="1.000000" stroke="none" 
	d="
M198.632248,31.718224 
	C199.760559,31.978474 200.508072,31.984177 201.629333,31.985497 
	C208.978836,31.586653 215.833176,32.849834 222.726562,33.540852 
	C225.488297,33.817696 228.379013,34.712631 228.406418,37.977051 
	C228.431244,40.938896 225.557556,41.769482 223.154388,42.473331 
	C218.496704,43.837502 213.701477,44.105640 208.439941,44.013504 
	C207.561554,44.020058 207.119400,44.019138 206.345688,44.023796 
	C203.459427,45.774479 200.565689,44.676220 197.422272,45.009369 
	C195.293365,45.019234 193.584137,45.023556 191.447876,45.037201 
	C187.779709,46.893112 184.244232,45.613739 180.433929,46.007141 
	C174.320831,46.020927 168.639648,46.030270 162.492340,46.050766 
	C154.322189,47.858849 146.559387,46.968998 138.391876,46.312141 
	C133.958786,46.038704 129.941147,46.023140 125.460434,46.011902 
	C115.169319,46.394470 105.459274,45.138084 95.747665,43.904278 
	C94.920158,43.799149 94.105064,43.615047 93.297844,43.418732 
	C91.239639,42.918163 89.431786,42.006222 89.314667,39.596603 
	C89.209648,37.435818 90.786194,36.390800 92.530945,35.598736 
	C94.063759,34.902889 95.686943,34.513355 97.351715,34.363674 
	C106.927803,33.502666 116.438507,31.842459 126.547623,31.989826 
	C130.021271,31.976728 133.045288,31.969452 136.521713,31.950727 
	C139.880676,30.461596 142.839142,30.738243 146.114746,32.029995 
	C146.652008,32.959599 146.731171,33.557961 146.475983,34.599442 
	C145.624588,35.693554 144.771225,35.910477 143.424042,35.935085 
	C135.350204,34.664036 117.410210,36.382210 110.555450,39.501274 
	C124.266502,42.278828 138.112686,43.323250 152.528931,42.139267 
	C154.068588,41.783520 155.211655,41.782532 156.785706,41.966949 
	C163.473740,43.237129 169.847153,42.965126 176.073471,42.441326 
	C184.314285,41.748058 192.645370,41.798317 200.796753,40.150364 
	C202.857605,39.733727 205.100510,39.826725 207.465179,37.874989 
	C202.141815,36.202488 197.099030,35.847042 192.118042,35.520798 
	C179.707199,34.707920 167.285248,33.987968 154.833160,34.360836 
	C153.507065,34.400543 152.171478,34.353611 150.526825,33.625713 
	C149.716522,32.947594 149.532013,32.409462 149.794037,31.389542 
	C159.686066,30.993479 169.375214,30.995152 179.533096,30.992718 
	C186.081482,31.284201 192.190781,30.439934 198.632248,31.718224 
z"/>
<path fill="#02BEF7" opacity="1.000000" stroke="none" 
	d="
M184.402771,217.210968 
	C184.252563,216.495285 184.221481,216.080505 184.215851,215.354187 
	C184.903122,207.592209 184.267151,200.122314 184.764420,192.230438 
	C189.510437,190.592682 194.079117,191.543701 198.633926,191.803360 
	C200.155685,191.890106 201.543915,192.597458 201.294769,195.046875 
	C199.555542,201.690659 197.512558,207.666534 193.266983,212.643234 
	C191.209076,215.055511 189.050034,217.269424 185.415314,217.899292 
	C184.879684,217.753098 184.700790,217.632492 184.402771,217.210968 
z"/>
<path fill="#3B1F52" opacity="1.000000" stroke="none" 
	d="
M126.707596,31.692226 
	C121.655724,33.901928 115.974556,32.933350 110.504028,33.939949 
	C104.850960,34.980141 98.999664,34.832985 93.469582,36.719543 
	C91.897652,37.255791 90.002159,37.477238 90.203545,39.730213 
	C90.372749,41.623142 91.989182,41.744789 93.500259,42.089333 
	C101.081215,43.817875 108.784370,44.513012 116.517410,44.993378 
	C119.149017,45.156845 121.783272,45.277637 124.706833,45.717083 
	C124.312180,46.912178 123.331245,47.048164 122.317650,46.990231 
	C107.030037,46.116409 91.637527,46.241982 76.689713,42.126320 
	C75.249954,41.729904 73.485962,41.824249 73.250732,39.927708 
	C72.969002,37.656212 75.119621,37.209026 76.519417,36.856087 
	C81.619751,35.570122 86.759018,34.010933 91.960716,33.641998 
	C103.439034,32.827885 114.828285,30.464607 126.707596,31.692226 
z"/>
<path fill="#3B1F52" opacity="1.000000" stroke="none" 
	d="
M208.296539,44.313225 
	C211.854828,42.439499 216.069962,42.892952 220.000870,41.898827 
	C222.759079,41.201275 227.095276,41.353134 227.371902,38.064415 
	C227.694931,34.224186 223.231812,34.945198 220.769989,34.546989 
	C214.755554,33.574150 208.644958,33.195732 202.288086,32.279572 
	C202.566666,31.671507 203.140961,31.074108 203.692245,31.094618 
	C215.739456,31.542776 227.827148,31.674076 239.596710,34.781334 
	C241.281479,35.226128 243.659073,35.291973 243.754456,37.602757 
	C243.847855,39.865242 241.571594,40.461151 239.883148,40.854706 
	C229.597382,43.252178 219.340775,46.047718 208.296539,44.313225 
z"/>
<path fill="#0E193C" opacity="1.000000" stroke="none" 
	d="
M177.786194,151.330963 
	C180.624039,146.453140 182.371445,141.599152 183.723724,136.248535 
	C184.422302,136.355331 184.726288,136.787918 185.019974,137.690582 
	C185.258545,138.876068 185.287643,139.680344 185.317490,140.888672 
	C185.386765,142.372513 185.363907,143.453903 185.366943,144.946899 
	C185.461121,147.301987 185.402588,149.246292 185.414368,151.610413 
	C185.488022,153.996155 185.408829,155.962189 185.419922,158.344315 
	C185.425629,160.404526 185.403061,162.048126 185.382004,164.091110 
	C185.360123,165.533066 185.342834,166.575577 185.313980,167.997269 
	C185.284637,169.374237 185.216324,170.369476 185.098587,171.732697 
	C184.993210,172.340607 184.931595,172.580200 184.429413,173.401215 
	C181.785706,174.095596 180.545105,176.082764 178.310242,176.873077 
	C176.003586,175.682129 176.166443,173.701721 176.425476,171.717331 
	C176.793304,168.899536 176.637329,166.159729 175.243683,163.170868 
	C173.999390,158.657318 176.342377,155.292801 177.786194,151.330963 
z"/>
<path fill="#1187BC" opacity="1.000000" stroke="none" 
	d="
M153.323090,186.933685 
	C152.955322,180.834564 152.981415,174.808594 153.006256,168.300659 
	C155.753250,166.886765 158.501495,165.954834 161.621368,164.944977 
	C164.750351,171.195251 163.919098,177.633591 162.264404,184.465607 
	C159.203018,185.564835 156.459991,186.285843 153.323090,186.933685 
z"/>
<path fill="#1679A9" opacity="1.000000" stroke="none" 
	d="
M184.714569,159.410065 
	C184.346069,157.019791 184.282227,154.987183 184.291016,152.524048 
	C190.235291,149.177414 196.257889,150.208374 202.686096,151.686798 
	C203.129303,154.338760 203.173355,156.712021 203.168655,159.527283 
	C197.058151,162.434921 191.025055,162.326431 184.714569,159.410065 
z"/>
<path fill="#224B75" opacity="1.000000" stroke="none" 
	d="
M131.501602,130.133453 
	C136.462219,129.421616 139.921402,131.222916 141.449432,135.443771 
	C142.568359,138.534637 142.779739,141.912491 139.860886,144.653641 
	C137.429825,146.936707 134.860748,148.844559 131.455124,147.530350 
	C128.318649,146.319992 125.489204,144.400070 125.058540,140.612885 
	C124.630714,136.850677 124.846848,133.225204 128.819824,131.173645 
	C129.555038,130.793976 130.339935,130.510529 131.501602,130.133453 
z"/>
<path fill="#2D224E" opacity="1.000000" stroke="none" 
	d="
M191.678101,70.418304 
	C192.475616,70.021126 192.973694,69.994270 193.470428,70.009956 
	C196.713852,70.112282 200.758743,69.033470 202.451859,72.578163 
	C204.133698,76.099289 201.326294,79.206253 199.324173,81.948578 
	C197.583344,84.332993 195.469482,86.520996 192.304352,87.860222 
	C189.335129,82.351189 190.111938,76.588478 191.678101,70.418304 
z"/>
<path fill="#04B4ED" opacity="1.000000" stroke="none" 
	d="
M201.441467,195.197678 
	C200.921295,192.964325 199.073730,193.060257 197.177124,192.974533 
	C193.410309,192.804260 189.554642,193.693207 185.487442,192.049133 
	C184.920685,192.171051 184.762756,192.354553 184.436935,192.216019 
	C184.263550,189.885498 184.258041,187.877029 184.347870,185.448730 
	C190.465195,183.107391 196.407166,184.459457 202.736465,185.728729 
	C203.543930,189.097580 202.571945,191.981430 201.441467,195.197678 
z"/>
<path fill="#2A2D5A" opacity="1.000000" stroke="none" 
	d="
M191.540237,70.023178 
	C191.984634,75.704674 191.991104,81.381042 191.994659,87.524338 
	C189.893539,88.621895 187.795349,89.252518 185.326584,89.898491 
	C182.302673,83.638481 183.152008,77.250671 184.649704,70.470154 
	C187.004318,70.064987 189.053314,70.041519 191.540237,70.023178 
z"/>
<path fill="#1B6592" opacity="1.000000" stroke="none" 
	d="
M203.116760,151.531189 
	C197.134094,151.988663 191.182953,152.011841 184.797714,152.064270 
	C184.302368,150.043701 184.241104,147.993896 184.242920,145.511642 
	C190.189011,142.193420 196.216995,143.197418 202.646683,144.697052 
	C203.076492,147.021576 203.112396,149.059219 203.116760,151.531189 
z"/>
<path fill="#293762" opacity="1.000000" stroke="none" 
	d="
M184.451843,135.314667 
	C183.095657,130.132492 185.123962,128.329514 189.954895,128.977524 
	C192.078247,129.262344 194.316055,129.305435 196.424210,128.969986 
	C201.455353,128.169373 203.822052,130.246506 203.896790,135.615570 
	C197.463974,138.571182 191.123505,137.731964 184.451843,135.314667 
z"/>
<path fill="#4A305F" opacity="1.000000" stroke="none" 
	d="
M227.354065,198.868042 
	C226.227829,199.949844 225.402359,200.864273 224.302673,201.935242 
	C221.385529,200.764389 221.308945,198.217133 221.954544,196.072067 
	C223.130798,192.163773 223.764023,187.978012 226.700348,184.310318 
	C226.983658,183.248718 226.999969,182.510834 227.021469,181.403961 
	C227.535507,180.478546 228.071381,179.947861 228.782669,179.193848 
	C229.970245,176.250824 230.961166,173.510925 231.995728,170.409485 
	C232.534760,169.476578 233.075409,168.947784 233.793488,168.197021 
	C235.665695,166.195633 236.096191,163.500824 238.602264,162.005035 
	C240.022461,163.013641 239.527710,164.265762 239.292938,165.846359 
	C239.109589,166.691620 238.957687,167.159286 238.600739,167.936966 
	C234.260498,173.579498 232.345505,179.991776 229.866699,186.121582 
	C229.109146,187.994980 229.090744,190.018799 230.072510,192.273926 
	C230.578735,193.541595 230.324081,194.447021 229.890778,195.673141 
	C229.224075,197.027695 228.667877,198.042053 227.354065,198.868042 
z"/>
<path fill="#1D5B8C" opacity="1.000000" stroke="none" 
	d="
M171.266693,180.692719 
	C170.112610,182.055038 168.928162,182.588654 167.300293,182.906677 
	C164.287918,176.253540 165.081711,169.523346 166.708099,162.380127 
	C167.886429,160.221313 169.667511,159.675018 171.581268,158.767151 
	C174.002136,160.408310 172.894470,163.360077 174.585632,165.685547 
	C175.115723,171.160278 173.588745,175.824341 171.266693,180.692719 
z"/>
<path fill="#263A68" opacity="1.000000" stroke="none" 
	d="
M184.527924,70.068802 
	C184.964752,76.391220 184.974213,82.693985 184.969849,89.455299 
	C183.241043,89.918045 181.526077,89.922241 179.382828,89.888527 
	C176.393387,83.613853 177.315552,77.260612 178.636093,70.534302 
	C180.667648,70.125732 182.384079,70.087433 184.527924,70.068802 
z"/>
<path fill="#09A4DA" opacity="1.000000" stroke="none" 
	d="
M184.791916,180.343994 
	C184.332993,178.291763 184.234985,176.566223 184.062927,174.411652 
	C183.988846,173.982635 184.141068,174.099991 184.236603,174.110413 
	C184.552353,173.899414 184.772598,173.677979 185.407089,173.236526 
	C191.356125,172.392166 196.891663,171.739929 202.747803,173.721283 
	C203.190765,175.702209 203.249664,177.421158 203.223877,179.562775 
	C197.238281,182.695450 191.200226,181.805496 184.791916,180.343994 
z"/>
<path fill="#06ADE4" opacity="1.000000" stroke="none" 
	d="
M184.337494,180.428528 
	C190.346985,180.009964 196.262985,180.002625 202.659088,179.990387 
	C203.196320,181.706955 203.253464,183.428452 203.212982,185.570297 
	C197.142883,185.977234 191.151688,186.307114 184.846024,185.022675 
	C184.376801,183.632507 184.310394,182.236145 184.337494,180.428528 
z"/>
<path fill="#196C9F" opacity="1.000000" stroke="none" 
	d="
M166.668762,162.039383 
	C166.995193,168.645676 166.994095,175.309402 166.980682,182.431061 
	C165.524002,183.557999 164.079636,184.227005 162.290665,184.869919 
	C161.962173,178.505157 161.978287,172.166489 161.993698,165.347427 
	C163.442398,163.943619 164.891800,163.020218 166.668762,162.039383 
z"/>
<path fill="#543B68" opacity="1.000000" stroke="none" 
	d="
M265.780914,129.695831 
	C265.436127,131.458542 264.877411,132.914200 264.209930,134.687363 
	C264.145325,135.684082 263.935272,136.300156 263.444885,137.163116 
	C262.778534,137.914154 262.212311,138.227203 261.212524,138.266174 
	C260.212982,137.757111 259.544403,137.166397 258.584534,138.348724 
	C253.568970,143.439377 249.130310,148.548004 246.042358,155.106567 
	C245.756134,155.621674 245.624542,155.820007 245.234344,156.269211 
	C244.131546,157.058136 243.241211,157.387604 241.942642,156.892853 
	C241.283112,155.980545 241.234756,155.283920 241.751160,154.276459 
	C243.322479,152.915070 243.868835,151.447556 244.043808,149.439789 
	C246.179962,147.061523 247.359283,144.311035 249.667313,142.064407 
	C250.892685,141.466660 250.987350,140.606674 251.031433,139.390747 
	C251.700317,138.269287 252.463181,137.598465 253.671417,137.007965 
	C254.554367,136.114395 255.152328,135.334778 255.874207,134.276657 
	C257.333191,132.747498 258.524475,131.355209 259.824554,130.073715 
	C261.526367,128.396179 263.420074,127.655182 265.780914,129.695831 
z"/>
<path fill="#1188BA" opacity="1.000000" stroke="none" 
	d="
M184.319611,159.473145 
	C190.265625,160.537628 196.235413,159.858353 202.641235,159.978699 
	C203.159775,161.363846 203.199646,162.758438 203.181473,164.567688 
	C197.227188,167.748245 191.185318,166.745590 184.778595,165.352173 
	C184.353958,163.316040 184.291626,161.604965 184.319611,159.473145 
z"/>
<path fill="#1A6996" opacity="1.000000" stroke="none" 
	d="
M155.651535,120.346039 
	C158.428848,123.631485 158.450974,126.680153 155.720459,129.500626 
	C153.761581,131.524048 151.423920,132.512268 148.541702,131.154053 
	C144.821320,129.400864 143.244781,125.528885 145.001450,122.162926 
	C147.110657,118.121475 150.716049,117.398743 155.651535,120.346039 
z"/>
<path fill="#0C9BCF" opacity="1.000000" stroke="none" 
	d="
M203.206116,173.571381 
	C197.422348,173.991928 191.712814,174.000595 185.540207,174.017853 
	C184.902008,173.890762 184.726898,173.755112 184.438782,173.306976 
	C184.300262,171.935165 184.274734,170.875809 184.339966,169.428528 
	C190.307449,166.256195 196.308533,167.145462 202.723602,168.709290 
	C203.176147,170.375626 203.228256,171.767548 203.206116,173.571381 
z"/>
<path fill="#381C4F" opacity="1.000000" stroke="none" 
	d="
M226.619690,184.046143 
	C225.654785,188.009384 224.187714,191.991180 223.104599,196.074829 
	C222.662216,197.742813 222.718811,199.674255 223.869843,201.713776 
	C223.917938,205.418228 221.746338,207.553894 219.324951,209.882629 
	C218.163422,208.566650 217.677246,206.925278 218.033447,205.275162 
	C219.649673,197.787842 221.351776,190.314407 226.619690,184.046143 
z"/>
<path fill="#1187BC" opacity="1.000000" stroke="none" 
	d="
M156.643051,70.988602 
	C158.013321,70.548332 159.076538,70.457489 160.526978,70.490936 
	C163.789673,76.455322 161.965744,82.601921 161.916046,89.025970 
	C160.403610,89.518593 159.063721,89.606804 157.337067,89.566238 
	C154.379089,83.484627 155.382431,77.410484 156.643051,70.988602 
z"/>
<path fill="#205281" opacity="1.000000" stroke="none" 
	d="
M176.100555,89.404541 
	C174.217697,89.783150 172.499969,89.812881 170.358826,89.765839 
	C167.483643,85.777962 168.854996,81.493179 168.790955,76.977829 
	C168.961090,75.269806 170.425003,74.298378 169.740982,72.485382 
	C169.496536,71.753174 169.479630,71.319618 169.742645,70.612610 
	C171.323776,70.279877 172.714111,70.216072 174.520859,70.203049 
	C175.572754,70.823387 175.804550,71.564827 175.821899,72.780106 
	C175.076111,77.982819 175.050735,82.794167 175.937683,87.953873 
	C176.157745,88.552467 176.211716,88.804070 176.100555,89.404541 
z"/>
<path fill="#0D234B" opacity="1.000000" stroke="none" 
	d="
M171.362000,180.981232 
	C172.012405,176.284622 173.010788,171.550171 174.028809,166.412689 
	C173.959122,164.815125 174.025436,163.678070 175.526627,162.966461 
	C178.840286,165.304962 178.090881,168.581833 177.829086,171.562637 
	C177.687973,173.169312 177.160355,174.693420 177.959351,176.630981 
	C176.154633,178.721207 174.160309,180.196594 171.362000,180.981232 
z"/>
<path fill="#0E91C5" opacity="1.000000" stroke="none" 
	d="
M203.188431,168.587082 
	C197.183090,168.995010 191.242126,169.006332 184.865936,169.029129 
	C184.363739,167.966537 184.296768,166.892471 184.323044,165.422760 
	C190.332184,165.016083 196.248062,165.005051 202.643707,164.988174 
	C203.166580,166.051727 203.209702,167.121094 203.188431,168.587082 
z"/>
<path fill="#21557F" opacity="1.000000" stroke="none" 
	d="
M203.061584,144.585114 
	C197.087280,144.999237 191.133942,145.014572 184.743317,145.054550 
	C184.250412,144.002380 184.194824,142.925537 184.191376,141.447235 
	C190.153839,138.262238 196.200012,139.335022 202.639954,140.700653 
	C203.049896,142.055252 203.066223,143.120789 203.061584,144.585114 
z"/>
<path fill="#186EA1" opacity="1.000000" stroke="none" 
	d="
M163.387787,70.741081 
	C164.845383,70.455605 165.906036,70.371414 167.356705,70.388000 
	C168.961655,76.767708 168.781464,82.956451 166.237030,89.308533 
	C165.449295,89.634338 164.973877,89.664169 164.150787,89.604225 
	C163.182907,89.255157 162.486481,88.860725 162.441772,88.228203 
	C162.033356,82.451111 161.089264,76.647560 163.387787,70.741081 
z"/>
<path fill="#381C4F" opacity="1.000000" stroke="none" 
	d="
M272.806854,117.736259 
	C271.848999,120.209358 270.697968,122.410255 269.277466,124.808426 
	C264.158997,124.006119 262.351044,129.020172 258.311768,130.122025 
	C259.191589,123.695198 263.951172,120.236320 268.621857,116.736198 
	C270.109802,115.621193 271.381073,116.666420 272.806854,117.736259 
z"/>
<path fill="#0AA7DC" opacity="1.000000" stroke="none" 
	d="
M163.533005,115.347061 
	C162.753326,111.222290 164.273392,109.014023 168.179230,109.368942 
	C170.963715,109.621964 172.140625,111.729897 171.682571,114.431145 
	C171.047882,118.174187 167.391998,118.717896 163.533005,115.347061 
z"/>
<path fill="#1C6091" opacity="1.000000" stroke="none" 
	d="
M166.317978,89.711670 
	C166.434418,83.452637 166.944138,77.300758 167.600281,70.818832 
	C168.232178,70.393234 168.717667,70.297699 169.568283,70.272919 
	C169.953964,70.709648 169.974487,71.075623 170.001114,71.718941 
	C170.578384,72.685646 170.740417,73.457329 170.240875,74.659813 
	C169.997711,79.610214 169.987488,84.216057 169.956329,89.255486 
	C168.860672,89.732323 167.785965,89.775581 166.317978,89.711670 
z"/>
<path fill="#553C69" opacity="1.000000" stroke="none" 
	d="
M57.663071,131.707825 
	C58.094597,133.548889 58.788345,134.608719 60.730457,134.963135 
	C61.077408,134.995819 61.050896,135.465927 61.047676,135.701340 
	C61.533493,136.534531 61.776741,137.212921 61.616096,138.337540 
	C57.409912,140.117294 59.073711,143.804703 58.168678,146.820663 
	C55.705009,146.358505 55.065933,144.698746 55.053696,142.318542 
	C53.085842,139.970200 52.573521,137.314102 52.154030,134.736755 
	C51.506870,130.760620 53.208817,129.745880 57.663071,131.707825 
z"/>
<path fill="#234674" opacity="1.000000" stroke="none" 
	d="
M175.000076,73.450882 
	C174.990494,72.310226 174.981873,71.620453 174.955261,70.592255 
	C176.009171,70.196732 177.081100,70.139633 178.552109,70.123283 
	C178.962143,76.425072 178.973099,82.686111 178.969299,89.398880 
	C178.198135,89.866112 177.441696,89.881615 176.310349,89.825272 
	C175.935425,89.753426 175.947540,89.390152 175.949509,89.208420 
	C173.938232,84.091652 175.500366,78.931938 175.000076,73.450882 
z"/>
<path fill="#0C98CD" opacity="1.000000" stroke="none" 
	d="
M156.585327,70.507919 
	C156.959167,76.624619 156.968216,82.610062 156.963776,89.016479 
	C156.196243,89.517334 155.442184,89.597221 154.326355,89.550018 
	C151.545502,83.482567 152.489090,77.426598 153.654846,71.029266 
	C154.717255,70.582123 155.468887,70.479385 156.585327,70.507919 
z"/>
<path fill="#553C69" opacity="1.000000" stroke="none" 
	d="
M76.728302,156.836670 
	C76.945244,157.511871 76.959442,157.936096 76.991104,158.678223 
	C77.612999,159.732300 77.479950,160.450912 76.631516,161.391251 
	C75.553452,161.925308 74.779205,161.976456 73.629501,161.687759 
	C72.863472,161.264954 72.534157,160.906784 72.187073,160.128784 
	C71.734291,158.099655 71.689362,156.292282 70.040916,154.754303 
	C69.675247,154.328354 69.537613,154.148178 69.225914,153.672226 
	C67.566307,150.097000 65.476822,147.209366 63.235611,144.421066 
	C62.116077,143.028229 60.840851,141.700256 61.554401,139.353210 
	C62.396553,138.548111 63.072575,138.706635 64.051384,139.199966 
	C68.201141,142.654755 70.412407,147.032715 72.787033,151.720734 
	C73.006508,151.992554 73.000000,152.000000 73.004608,151.996857 
	C74.329689,153.410767 75.029541,155.303070 76.728302,156.836670 
z"/>
<path fill="#234A74" opacity="1.000000" stroke="none" 
	d="
M203.044739,140.616302 
	C197.065475,140.998566 191.097351,141.007416 184.686371,141.031006 
	C184.195770,140.297119 184.148010,139.548462 184.130157,138.425323 
	C186.196152,135.887589 188.739777,136.941864 191.095383,137.015793 
	C194.825348,137.132828 198.578766,136.601593 202.666122,137.695129 
	C203.049927,138.747940 203.052902,139.495407 203.044739,140.616302 
z"/>
<path fill="#44295A" opacity="1.000000" stroke="none" 
	d="
M257.851868,130.286377 
	C259.947601,128.208847 262.036591,126.549965 263.819580,124.609810 
	C265.548370,122.728615 266.918793,123.255608 268.711060,124.862465 
	C268.953125,126.957748 267.337128,128.078339 266.268372,129.819489 
	C261.249664,127.426430 260.001495,133.119553 256.344849,133.967590 
	C255.894180,132.520950 256.954285,131.627457 257.851868,130.286377 
z"/>
<path fill="#224A79" opacity="1.000000" stroke="none" 
	d="
M175.901520,162.574677 
	C175.423248,163.869385 174.973618,164.748642 174.286224,165.818771 
	C171.052933,164.600052 172.294220,161.825607 171.940247,159.114975 
	C172.974518,155.640366 175.806519,153.931091 177.716461,151.146973 
	C178.400055,154.908829 175.564529,158.236481 175.901520,162.574677 
z"/>
<path fill="#3B1F52" opacity="1.000000" stroke="none" 
	d="
M138.078049,46.444069 
	C145.679047,46.041527 153.381699,46.028778 161.555267,46.038979 
	C161.812668,47.453518 160.950378,47.994213 159.600647,47.987755 
	C152.970596,47.956032 146.340103,47.966396 139.710968,47.875538 
	C139.195892,47.868477 138.689896,47.196693 138.078049,46.444069 
z"/>
<path fill="#253E65" opacity="1.000000" stroke="none" 
	d="
M203.277557,137.828873 
	C197.051926,138.005966 191.056900,138.011459 184.610992,138.033905 
	C184.113953,137.596741 184.067825,137.142639 184.011841,136.346588 
	C184.001968,136.004639 184.035828,135.507507 184.064758,135.260071 
	C190.346481,136.093643 196.656662,136.085144 203.423309,136.013092 
	C203.753464,136.565506 203.630829,137.111389 203.277557,137.828873 
z"/>
<path fill="#0AA7DC" opacity="1.000000" stroke="none" 
	d="
M153.570923,70.541405 
	C153.971176,76.649582 153.976715,82.614304 153.973419,89.000977 
	C153.760864,89.462029 153.557159,89.501137 153.060242,89.436050 
	C150.415894,88.435226 151.120407,86.374634 151.016556,84.650948 
	C150.758408,80.366493 151.510590,76.043457 150.265945,71.461372 
	C150.001984,71.137596 149.911560,70.926476 149.901733,70.812668 
	C150.986694,70.598557 152.081467,70.498253 153.570923,70.541405 
z"/>
<path fill="#1479AC" opacity="1.000000" stroke="none" 
	d="
M163.436111,70.413437 
	C162.393631,76.622726 162.830673,82.736816 163.637833,89.184418 
	C163.340408,89.572113 162.877716,89.629784 162.079254,89.558922 
	C160.071579,83.493744 161.462524,77.425125 160.941223,71.026489 
	C161.638641,70.505844 162.363083,70.396461 163.436111,70.413437 
z"/>
<path fill="#04B4ED" opacity="1.000000" stroke="none" 
	d="
M149.999222,71.590919 
	C152.605545,71.357536 151.898453,73.370636 151.982727,74.889793 
	C152.237991,79.491936 151.531754,84.123360 152.580460,89.020432 
	C152.288132,89.413605 151.809235,89.495331 150.983307,89.437881 
	C149.941162,88.892372 149.037338,88.503380 149.308823,87.527565 
	C150.732101,82.411713 149.645859,77.198013 149.999222,71.590919 
z"/>
<path fill="#3B1F52" opacity="1.000000" stroke="none" 
	d="
M198.917160,31.579521 
	C192.872086,31.799973 186.713242,32.474884 180.294632,31.286407 
	C186.291351,29.496746 192.568787,29.153532 198.917160,31.579521 
z"/>
<path fill="#3B1F52" opacity="1.000000" stroke="none" 
	d="
M73.002312,151.616913 
	C69.087318,148.971191 68.178535,143.655380 64.166351,140.290009 
	C63.419518,138.915100 62.223274,138.100830 62.777119,136.312225 
	C67.674454,140.200119 71.319420,145.075607 73.002312,151.616913 
z"/>
<path fill="#3B1F52" opacity="1.000000" stroke="none" 
	d="
M75.713104,161.350677 
	C76.272102,160.542892 76.611282,160.075485 76.979507,159.302094 
	C81.308868,160.278839 81.133385,164.435104 82.280914,167.793091 
	C81.623116,168.362625 81.144058,168.592300 80.195580,168.669250 
	C76.961922,167.190689 74.832687,165.302261 75.713104,161.350677 
z"/>
<path fill="#3B1F52" opacity="1.000000" stroke="none" 
	d="
M149.706970,30.697943 
	C149.987274,31.422533 149.977615,31.853258 149.963379,32.607029 
	C149.014679,33.958813 147.907593,34.006355 146.350250,33.198357 
	C143.465652,31.032381 140.551819,32.442036 137.414291,31.961052 
	C138.142731,28.406319 141.080521,30.366390 143.194992,30.087467 
	C145.219849,29.820370 147.339203,30.269651 149.706970,30.697943 
z"/>
<path fill="#1983B9" opacity="1.000000" stroke="none" 
	d="
M184.159058,192.359360 
	C184.269058,191.893967 184.674484,191.930145 184.876556,191.958832 
	C184.951233,199.443710 184.823853,206.899887 184.468872,214.699356 
	C184.177216,207.636688 184.113129,200.230713 184.159058,192.359360 
z"/>
<path fill="#3B1F52" opacity="1.000000" stroke="none" 
	d="
M180.287781,46.302246 
	C183.203217,43.976913 186.751450,45.445595 190.565964,45.028385 
	C188.034241,48.911709 184.107620,46.426342 180.287781,46.302246 
z"/>
<path fill="#685279" opacity="1.000000" stroke="none" 
	d="
M238.663208,166.390945 
	C237.832733,164.984390 238.706161,163.899414 238.924072,162.325287 
	C238.996552,161.236893 239.057266,160.523819 239.143890,159.453247 
	C239.298431,158.911423 239.427078,158.727127 239.837402,158.353851 
	C240.742264,157.858871 241.395065,157.653427 242.442856,157.604431 
	C242.989182,157.768784 243.180923,157.913971 243.534058,158.387115 
	C243.777054,162.288605 242.340683,164.950119 238.663208,166.390945 
z"/>
<path fill="#381C4F" opacity="1.000000" stroke="none" 
	d="
M249.786591,141.716263 
	C248.622864,144.576904 247.542419,147.417984 244.397552,149.030579 
	C245.092621,145.965714 246.362244,143.013779 249.786591,141.716263 
z"/>
<path fill="#3B1F52" opacity="1.000000" stroke="none" 
	d="
M197.279510,45.301033 
	C199.502930,42.994648 202.434357,44.434757 205.573303,44.015751 
	C203.784882,47.751873 200.479889,45.633762 197.279510,45.301033 
z"/>
<path fill="#3B1F52" opacity="1.000000" stroke="none" 
	d="
M83.862137,173.816147 
	C87.076836,173.711212 86.905701,175.283920 86.079224,177.569092 
	C85.881805,178.062958 85.714096,178.221863 85.206024,178.452377 
	C83.231148,178.287231 82.466049,177.237274 82.235313,175.348541 
	C82.316078,174.774826 82.384666,174.551422 82.666069,174.049515 
	C83.107697,173.723984 83.336517,173.676926 83.862137,173.816147 
z"/>
<path fill="#4B315F" opacity="1.000000" stroke="none" 
	d="
M79.655312,168.370300 
	C80.381287,168.024643 80.854118,168.010208 81.682602,167.997879 
	C82.346970,169.375183 82.655685,170.750351 83.002724,172.479675 
	C83.152901,173.033508 83.264763,173.233200 83.203918,173.729645 
	C83.031204,174.026367 82.996750,174.005280 83.016129,173.999725 
	C82.598412,174.374802 82.091324,174.534012 81.132812,174.310577 
	C79.458252,172.540131 78.876122,170.758026 79.655312,168.370300 
z"/>
<path fill="#3B1F52" opacity="1.000000" stroke="none" 
	d="
M76.923607,156.732010 
	C74.305420,156.802658 73.780243,154.666885 73.036728,152.346481 
	C75.401894,152.482590 76.040375,154.535263 76.923607,156.732010 
z"/>
<path fill="#4B315F" opacity="1.000000" stroke="none" 
	d="
M84.789528,178.254959 
	C85.212914,177.968948 85.380363,177.961090 85.798660,177.928650 
	C86.620941,178.423462 87.192368,178.942871 87.884727,179.729004 
	C88.003510,180.452240 88.001358,180.908752 88.000366,181.707611 
	C88.112061,182.209229 88.222595,182.368500 88.166870,182.766327 
	C88.000603,183.004913 88.000000,183.000000 88.002304,183.001236 
	C86.821632,183.452225 86.183319,182.567596 85.183670,181.671265 
	C84.307953,180.505814 84.106461,179.563385 84.789528,178.254959 
z"/>
<path fill="#381C4F" opacity="1.000000" stroke="none" 
	d="
M253.734924,136.649017 
	C253.959686,138.373108 253.142609,138.998322 251.391220,139.040268 
	C251.102768,137.467499 250.770523,135.503387 253.734924,136.649017 
z"/>
<path fill="#4B315F" opacity="1.000000" stroke="none" 
	d="
M62.672363,135.992584 
	C63.313984,137.101151 63.629627,138.201096 63.980835,139.645218 
	C63.493008,139.735229 62.969616,139.481049 62.165493,139.150070 
	C61.727123,139.164001 61.569481,139.254730 61.209312,139.162659 
	C61.009289,138.219772 61.011787,137.459732 61.029369,136.318207 
	C61.478432,135.952484 61.912411,135.968216 62.672363,135.992584 
z"/>
<path fill="#381C4F" opacity="1.000000" stroke="none" 
	d="
M241.630844,154.044571 
	C241.974533,154.739304 241.978073,155.491028 241.777557,156.830933 
	C241.378448,157.460693 241.183411,157.502258 240.484131,157.262268 
	C240.062729,155.859787 239.799011,154.581100 241.630844,154.044571 
z"/>
<path fill="#381C4F" opacity="1.000000" stroke="none" 
	d="
M233.671524,168.040344 
	C233.934860,168.903992 233.698502,169.690323 232.355698,169.993134 
	C232.066055,169.120071 232.287598,168.322052 233.671524,168.040344 
z"/>
<path fill="#381C4F" opacity="1.000000" stroke="none" 
	d="
M228.658829,179.036133 
	C228.927811,179.900940 228.696457,180.689194 227.344482,180.984039 
	C227.066132,180.116730 227.287872,179.320908 228.658829,179.036133 
z"/>
<path fill="#381C4F" opacity="1.000000" stroke="none" 
	d="
M240.249451,158.728882 
	C240.045273,159.054367 239.606781,159.093079 239.388290,159.094406 
	C237.992020,158.288025 237.914444,157.594711 239.680588,157.021362 
	C239.979904,156.980713 239.994690,156.994827 239.999481,156.999542 
	C240.380295,157.397980 240.530090,157.864349 240.249451,158.728882 
z"/>
<path fill="#1479AC" opacity="1.000000" stroke="none" 
	d="
M141.241028,89.958969 
	C141.247971,89.792038 141.539413,89.675591 141.951080,89.689316 
	C141.889374,89.882828 141.707458,89.946144 141.241028,89.958969 
z"/>
<path fill="#573E6A" opacity="1.000000" stroke="none" 
	d="
M83.313217,174.024170 
	C83.026924,173.828186 83.022636,173.629990 83.029694,173.132812 
	C83.312584,173.071915 83.584122,173.309998 84.007301,173.775269 
	C83.971039,174.008942 83.783142,174.015472 83.313217,174.024170 
z"/>
<path fill="#23578C" opacity="1.000000" stroke="none" 
	d="
M140.040726,70.311401 
	C139.982330,70.551483 139.683929,70.686462 139.145142,70.741745 
	C139.203415,70.510139 139.502060,70.358208 140.040726,70.311401 
z"/>
<path fill="#1983B9" opacity="1.000000" stroke="none" 
	d="
M184.244598,217.173340 
	C184.560974,217.021301 184.770142,217.208649 184.984848,217.672913 
	C184.774231,217.728027 184.489899,217.582336 184.244598,217.173340 
z"/>
<path fill="#2A2736" opacity="1.000000" stroke="none" 
	d="
M227.333405,199.155579 
	C227.539124,198.145065 228.024933,197.254684 228.762283,196.194916 
	C230.378860,195.605087 230.936737,196.478561 231.272095,197.891846 
	C230.692444,198.833069 230.236084,199.393585 229.513916,200.024872 
	C228.703232,199.822327 228.158371,199.549011 227.333405,199.155579 
z"/>
<path fill="#A599AF" opacity="1.000000" stroke="none" 
	d="
M238.240265,166.576447 
	C241.049957,164.522171 242.400391,161.847549 243.140625,158.399109 
	C243.508347,157.427612 244.017059,156.962677 244.715225,156.208084 
	C244.936447,155.945816 244.986496,155.995514 244.965057,155.971634 
	C246.575089,153.685959 247.734711,151.055710 249.792496,149.141876 
	C251.388107,147.657867 253.276764,146.136002 254.987396,149.645721 
	C255.476257,155.316193 251.125885,158.770752 249.713150,163.768234 
	C246.843994,166.461319 245.928879,169.871063 244.207062,173.227142 
	C244.065262,173.566620 244.009125,173.513947 244.047577,173.515472 
	C242.968185,174.972839 242.116989,176.668030 240.023529,177.722839 
	C237.614639,178.036270 236.401901,177.112778 235.849457,174.754272 
	C235.607269,172.226624 236.539825,170.449860 237.698303,168.320084 
	C238.025177,167.600845 238.103470,167.227951 238.240265,166.576447 
z"/>
<path fill="#5A5266" opacity="1.000000" stroke="none" 
	d="
M248.666565,164.270752 
	C249.434204,158.939636 253.379425,155.579285 254.225540,150.530289 
	C254.729126,149.459274 255.400818,149.276337 256.522156,149.378265 
	C257.313690,149.704056 257.675751,150.023727 258.077087,150.781494 
	C256.671722,156.900848 252.305023,161.125427 249.624924,166.694031 
	C248.770645,166.407959 248.475540,165.695892 248.666565,164.270752 
z"/>
<path fill="#4C4956" opacity="1.000000" stroke="none" 
	d="
M239.755676,177.204315 
	C241.232574,176.006943 241.319870,173.823303 243.723969,173.575668 
	C245.502701,174.497070 244.621262,175.660156 244.115051,176.526978 
	C241.745346,180.584732 239.244659,184.565979 236.465378,188.522949 
	C235.871475,188.467712 235.602982,188.464081 234.932739,188.497833 
	C232.903793,187.739273 233.372208,186.355530 233.664398,184.683731 
	C234.123215,183.369904 234.692383,182.577682 235.711517,181.705322 
	C236.676254,181.032959 237.490295,180.728821 238.170959,179.767029 
	C238.715256,178.804977 239.007004,178.043015 239.755676,177.204315 
z"/>
<path fill="#3E3B49" opacity="1.000000" stroke="none" 
	d="
M258.492310,150.946228 
	C257.863586,150.890106 257.527161,150.653137 257.026093,150.151306 
	C255.303879,147.231369 257.002777,145.028549 258.041565,142.390717 
	C259.169830,141.004517 259.775024,139.719101 260.778412,138.294800 
	C261.538574,137.797058 262.020966,137.515152 262.763336,137.130676 
	C264.225891,137.899094 264.045349,139.304352 264.228119,140.872070 
	C263.287567,144.946716 260.109467,147.340866 258.492310,150.946228 
z"/>
<path fill="#3A3644" opacity="1.000000" stroke="none" 
	d="
M233.659332,187.898422 
	C234.372742,188.065063 234.727982,188.111374 235.611572,188.314499 
	C236.295380,192.370789 233.043701,194.675201 231.440247,198.080109 
	C230.630280,197.613098 230.111740,196.953644 229.303528,196.159866 
	C229.263596,195.221024 229.513351,194.416489 229.886002,193.315704 
	C229.573425,190.309464 231.124008,188.846985 233.659332,187.898422 
z"/>
<path fill="#64616C" opacity="1.000000" stroke="none" 
	d="
M248.514984,163.839966 
	C248.941238,164.423889 249.050186,165.157349 249.272644,166.439011 
	C248.444275,169.690079 247.310455,172.266815 244.438736,173.756714 
	C243.267441,169.435623 245.698029,166.697647 248.514984,163.839966 
z"/>
<path fill="#2E2B3A" opacity="1.000000" stroke="none" 
	d="
M264.358582,141.004242 
	C263.732941,140.073563 263.379639,138.917465 263.024780,137.394730 
	C263.208984,136.461639 263.394714,135.895172 263.840759,135.166794 
	C264.666626,135.229416 265.232147,135.453949 265.953796,135.952423 
	C266.532227,138.041214 265.111877,139.257431 264.358582,141.004242 
z"/>
<path fill="#7C698B" opacity="1.000000" stroke="none" 
	d="
M60.640392,138.953156 
	C61.006794,138.979828 61.445766,139.037704 61.665264,139.055481 
	C61.652660,142.739670 65.321808,144.067825 66.583488,146.880157 
	C67.567764,149.074158 69.792435,150.633789 70.016594,153.633392 
	C69.275864,154.353928 68.621933,154.124527 67.702011,153.565430 
	C66.723145,152.709183 66.177902,151.931030 65.643089,151.153580 
	C64.126877,148.949432 63.214962,149.968353 62.148754,151.923767 
	C60.960602,152.036148 60.044250,151.951813 58.797722,151.851105 
	C58.311722,150.507919 58.155903,149.181122 57.956364,147.453812 
	C57.608700,145.005035 57.241318,142.963684 57.016113,140.906784 
	C56.701271,138.031189 58.293755,138.118698 60.640392,138.953156 
z"/>
<path fill="#4B315F" opacity="1.000000" stroke="none" 
	d="
M57.958145,131.655609 
	C53.024055,130.807892 52.089973,131.713531 53.369076,136.596298 
	C53.783649,138.178864 54.381481,139.713409 54.919373,141.660782 
	C50.234623,138.480743 50.662636,132.786728 49.558903,127.901337 
	C49.090534,125.828224 52.080101,125.532440 53.730591,126.572220 
	C55.503941,127.689400 57.228889,129.110458 57.958145,131.655609 
z"/>
<path fill="#6E597F" opacity="1.000000" stroke="none" 
	d="
M84.746124,177.814941 
	C85.184631,178.844818 85.323799,179.712814 85.717728,180.796967 
	C86.759827,182.070938 86.528069,183.576248 87.738937,184.787949 
	C87.955307,185.032837 87.984558,185.023911 87.993240,185.011322 
	C88.337921,185.360382 88.547989,185.786453 88.643700,186.632355 
	C88.212646,189.034897 87.270638,190.641830 84.756561,191.316666 
	C84.157631,191.384888 83.914803,191.374908 83.363045,191.171417 
	C82.945076,190.093460 82.670532,189.327469 81.377289,189.010025 
	C80.080368,185.491928 77.737228,182.760803 76.070084,179.305298 
	C78.083519,177.430847 79.229172,180.030258 81.005249,180.023346 
	C81.573212,178.055115 79.724014,176.247452 80.917801,174.087540 
	C81.588852,173.901108 82.001709,173.930817 82.725044,173.977356 
	C83.053497,175.388306 83.166039,176.745987 84.746124,177.814941 
z"/>
<path fill="#4B315F" opacity="1.000000" stroke="none" 
	d="
M87.985397,187.322708 
	C87.970741,186.550873 87.970665,186.107224 87.986259,185.331161 
	C91.015327,187.198837 94.046135,196.082123 92.791260,199.066391 
	C92.172211,200.538605 91.124405,201.371399 89.751305,200.119339 
	C86.936485,197.552673 83.441811,195.497589 82.796272,191.161621 
	C83.054115,190.977890 83.523018,190.943192 83.758102,190.941498 
	C85.490150,190.960220 86.292030,192.881393 88.023552,192.411407 
	C89.056351,190.819870 87.767120,189.231232 87.985397,187.322708 
z"/>
<path fill="#573E6A" opacity="1.000000" stroke="none" 
	d="
M87.978806,184.694794 
	C85.839531,184.821793 86.028236,183.219223 85.975845,181.386688 
	C86.485947,181.573395 86.999397,182.133667 87.758728,182.848206 
	C88.003830,183.453888 88.003067,183.905319 87.978806,184.694794 
z"/>
<path fill="#573E6A" opacity="1.000000" stroke="none" 
	d="
M88.158630,182.916229 
	C88.000603,183.004913 88.008278,182.526825 88.004898,182.288391 
	C88.167419,182.206665 88.347687,182.352112 88.486656,182.529861 
	C88.513313,182.563965 88.377502,182.725067 88.158630,182.916229 
z"/>
<path fill="#AFA3B8" opacity="1.000000" stroke="none" 
	d="
M67.599014,153.077515 
	C68.477165,153.326309 68.967285,153.591141 69.726868,153.929626 
	C69.996330,154.003311 69.999893,154.000000 69.997971,154.001755 
	C71.374855,155.214569 71.715782,157.009125 72.772575,158.763489 
	C73.065353,159.372116 73.127037,159.748367 73.235275,160.406967 
	C75.118454,163.616394 76.822952,166.634033 78.160957,169.806244 
	C79.096642,172.024582 79.732491,174.561127 75.410522,174.327515 
	C74.868813,174.115082 74.665062,174.010620 74.194748,173.703476 
	C73.169510,172.789719 73.084229,171.577103 71.826324,170.897888 
	C71.023056,170.433685 70.672119,169.947876 70.252487,169.138458 
	C69.928711,168.340210 69.729645,167.816360 69.305794,167.118210 
	C68.228783,166.215591 68.007065,165.186920 67.696785,163.786438 
	C67.473305,161.411819 66.349365,159.761978 65.710289,157.940781 
	C65.020836,155.976028 64.741859,154.098602 67.599014,153.077515 
z"/>
<path fill="#8F7F9C" opacity="1.000000" stroke="none" 
	d="
M73.801132,173.301758 
	C75.254478,172.655273 76.551346,174.604004 77.603622,173.133484 
	C78.504303,171.874802 77.257057,170.665298 76.762581,169.509872 
	C75.605568,166.806335 74.357491,164.141769 73.214066,161.075363 
	C73.941719,160.800049 74.601601,160.910797 75.597206,161.015930 
	C75.895309,163.835144 77.823143,165.637604 79.643402,167.836487 
	C80.291870,169.737625 80.675293,171.436157 81.117348,173.503036 
	C81.631996,175.621628 82.047363,177.383865 82.558411,179.117889 
	C82.894142,180.257095 83.438080,181.632812 82.393295,182.359039 
	C81.157181,183.218277 80.412064,181.709656 79.532776,181.048218 
	C78.617218,180.359482 77.679428,179.700317 76.407043,178.988098 
	C76.062737,178.947952 75.970894,178.518723 75.937538,178.301819 
	C75.464066,177.469910 74.936302,176.931503 74.228172,176.175537 
	C74.037796,175.966705 73.958351,175.532349 73.919647,175.315002 
	C73.566856,174.649826 73.466637,174.158401 73.801132,173.301758 
z"/>
<path fill="#9D8FA9" opacity="1.000000" stroke="none" 
	d="
M67.871452,152.734558 
	C66.101341,154.396957 65.687851,155.935745 66.959579,158.025665 
	C67.790192,159.390656 68.236221,160.989685 68.824280,162.856964 
	C64.742546,163.381027 65.594643,159.109055 63.368420,157.136353 
	C62.763565,155.499390 62.357063,154.160812 61.913757,152.471359 
	C62.418083,150.627487 61.152874,147.911652 62.817818,147.699600 
	C65.638298,147.340347 66.502602,150.366302 67.871452,152.734558 
z"/>
<path fill="#6E597F" opacity="1.000000" stroke="none" 
	d="
M63.131798,157.212067 
	C66.290176,157.704285 65.676392,161.608505 68.482315,163.107056 
	C68.902809,164.218430 69.011566,165.206802 69.100662,166.569534 
	C64.969093,165.178604 64.898506,160.827515 63.131798,157.212067 
z"/>
<path fill="#6E597F" opacity="1.000000" stroke="none" 
	d="
M70.067818,169.219757 
	C70.599640,169.145950 71.071495,169.427841 71.786301,169.842255 
	C72.315025,170.217316 72.499275,170.523438 72.577034,171.158203 
	C72.475433,171.598602 72.394669,171.763931 72.064369,172.047180 
	C70.398209,171.870071 69.916687,170.922562 70.067818,169.219757 
z"/>
<path fill="#6E597F" opacity="1.000000" stroke="none" 
	d="
M74.014915,172.987686 
	C74.003433,173.451096 73.984894,173.922058 73.923645,174.745331 
	C72.528885,174.943726 71.986130,174.090118 71.866158,172.495850 
	C71.814827,172.165100 71.925690,172.068893 71.980911,172.020569 
	C72.752045,171.582443 73.197922,171.983978 73.811386,172.744705 
	C74.020317,172.982697 74.007858,172.995224 74.014915,172.987686 
z"/>
<path fill="#6E597F" opacity="1.000000" stroke="none" 
	d="
M74.049927,176.290741 
	C74.974602,176.050552 75.734543,176.361435 75.906471,177.754547 
	C74.991936,177.968506 74.246796,177.642746 74.049927,176.290741 
z"/>
<path fill="#705B81" opacity="1.000000" stroke="none" 
	d="
M145.986832,33.245346 
	C147.054214,32.939320 148.111572,32.952652 149.563858,32.948029 
	C156.438370,32.960125 162.922516,32.845898 169.396545,33.050987 
	C181.946091,33.448547 194.514633,33.694546 206.927338,35.940395 
	C208.363373,36.200218 210.323334,35.859676 210.529190,37.781136 
	C210.782059,40.141415 208.409500,40.126579 206.983093,40.419563 
	C202.305237,41.380421 197.586868,42.548321 192.848907,42.732601 
	C181.114426,43.188995 169.405121,44.972340 157.310028,43.418652 
	C156.896301,42.858692 156.796417,42.571457 156.972336,41.921204 
	C161.237762,39.690811 165.480392,40.832729 170.013580,40.541016 
	C177.193726,41.049774 183.776428,39.873028 190.351425,38.391323 
	C182.708557,36.875763 175.047806,35.960556 166.858856,36.417721 
	C162.895065,36.570351 159.343811,36.517471 155.332520,36.456345 
	C152.085236,36.189041 149.194672,36.903645 146.207794,35.189949 
	C145.918121,34.413330 145.947464,33.989017 145.986832,33.245346 
z"/>
<path fill="#705B81" opacity="1.000000" stroke="none" 
	d="
M153.164780,42.733963 
	C145.494110,44.983475 137.878159,43.929039 130.327179,43.757622 
	C124.577248,43.627083 118.844261,42.639877 113.110176,41.977959 
	C110.896744,41.722450 107.643677,42.063347 107.374390,39.395126 
	C107.063278,36.312447 110.448021,37.139400 112.361641,36.783676 
	C122.275528,34.940792 132.222443,33.339050 142.689423,34.556751 
	C143.134323,35.066017 143.263275,35.308060 143.209229,35.918503 
	C142.603073,36.623516 142.134705,36.875122 141.244019,37.122440 
	C136.197189,37.193699 131.599472,37.846962 125.863327,38.845955 
	C132.132599,40.571346 137.417664,40.818729 143.149384,40.607437 
	C146.389404,40.596634 149.257202,40.263676 152.429993,41.369370 
	C152.984940,41.833839 153.155258,42.076557 153.164780,42.733963 
z"/>
<path fill="#92829F" opacity="1.000000" stroke="none" 
	d="
M143.100464,36.571533 
	C143.022766,35.885853 143.017242,35.674160 143.008545,35.143219 
	C143.727448,34.846802 144.449539,34.869629 145.530212,34.865047 
	C148.661011,34.920929 151.433228,35.004219 154.660065,35.157475 
	C155.767197,37.367817 154.209152,37.951637 152.740250,38.138809 
	C149.492569,38.552628 146.145920,39.254128 143.100464,36.571533 
z"/>
<path fill="#92829F" opacity="1.000000" stroke="none" 
	d="
M153.402496,43.117321 
	C153.005325,42.944908 153.006699,42.741173 153.013947,42.231888 
	C153.828720,39.414890 155.322815,40.017845 156.948883,41.500168 
	C156.985703,42.133125 156.989227,42.335159 156.994476,42.841560 
	C155.931137,43.125954 154.866089,43.105976 153.402496,43.117321 
z"/>
<path fill="#1983B9" opacity="1.000000" stroke="none" 
	d="
M184.254807,173.276505 
	C184.581894,173.147156 184.774445,173.357880 184.990280,173.826569 
	C185.077118,174.026428 184.705704,174.084305 184.518921,174.102570 
	C184.282700,173.933411 184.233261,173.745956 184.254807,173.276505 
z"/>
<path fill="#06B1E8" opacity="1.000000" stroke="none" 
	d="
M128.013794,137.411865 
	C129.576599,134.027893 131.828461,132.208359 135.241333,133.395325 
	C137.517105,134.186813 138.980621,135.987625 139.071365,138.656906 
	C139.169449,141.543411 137.788208,143.367126 135.210190,144.346893 
	C131.308716,145.829636 128.314255,143.111404 128.013794,137.411865 
z"/>
<path fill="#685279" opacity="1.000000" stroke="none" 
	d="
M234.041656,187.674408 
	C232.082718,188.903305 231.708694,191.107971 230.148621,192.723541 
	C226.949677,192.379761 227.692719,189.752563 228.139938,188.197906 
	C230.190628,181.069183 232.572189,174.026672 237.602966,168.019836 
	C238.405792,169.847198 237.017578,171.354172 236.890182,173.495453 
	C235.735641,176.999420 233.896378,179.959381 234.824524,183.782440 
	C234.707733,185.144424 234.386765,186.237228 234.041656,187.674408 
z"/>
<path fill="#7A6889" opacity="1.000000" stroke="none" 
	d="
M259.377869,141.708252 
	C258.433258,144.455902 257.697052,146.805252 256.911133,149.520508 
	C256.217834,149.953171 255.574249,150.019882 254.614899,150.123871 
	C253.594025,147.663727 252.337463,148.002884 250.944504,149.558929 
	C249.128860,151.587189 247.370605,153.666840 245.265625,155.836060 
	C247.060226,148.614365 251.928833,143.219711 257.704041,138.095932 
	C260.221619,138.265305 259.908691,139.785385 259.377869,141.708252 
z"/>
<path fill="#5A5266" opacity="1.000000" stroke="none" 
	d="
M259.504303,142.005814 
	C258.959290,140.886551 258.749115,139.666534 258.269592,138.191650 
	C258.070862,136.773483 258.403412,135.607697 259.660858,135.430023 
	C260.998749,135.240997 260.904785,136.473404 261.034393,137.726257 
	C260.840057,139.414627 261.502716,141.029831 259.504303,142.005814 
z"/>
<path fill="#7A6889" opacity="1.000000" stroke="none" 
	d="
M244.621765,155.972015 
	C244.967728,156.854126 244.779861,157.634308 243.463226,157.980423 
	C242.974380,158.016647 242.795410,158.008224 242.348297,157.981628 
	C241.930115,157.814438 241.780060,157.665421 241.790451,157.242767 
	C241.950882,156.969131 241.966110,156.992569 241.979858,156.993332 
	C242.764755,156.662125 243.535919,156.330170 244.621765,155.972015 
z"/>
<path fill="#04BBF3" opacity="1.000000" stroke="none" 
	d="
M151.754486,128.952393 
	C148.556610,128.975510 147.044342,127.520844 146.913864,124.749046 
	C146.827454,122.913467 147.536453,121.474686 149.507797,121.045784 
	C151.464813,120.620003 153.247894,121.042534 154.303482,122.823135 
	C155.949997,125.600510 154.765503,127.533524 151.754486,128.952393 
z"/>
<path fill="#224A79" opacity="1.000000" stroke="none" 
	d="
M174.703064,73.293503 
	C177.202072,77.906807 175.435623,83.073624 175.969452,88.557640 
	C174.613235,88.817978 173.966766,88.026588 174.020187,86.683426 
	C174.193756,82.319221 173.549011,77.930801 174.703064,73.293503 
z"/>
<path fill="#23578C" opacity="1.000000" stroke="none" 
	d="
M170.341049,74.953064 
	C170.005920,74.252357 170.003922,73.500351 170.004547,72.372314 
	C172.213455,72.509369 172.615234,73.436668 170.341049,74.953064 
z"/>
<path fill="#7C698B" opacity="1.000000" stroke="none" 
	d="
M73.024475,158.628433 
	C70.277077,158.786804 70.945534,156.195251 70.002884,154.366516 
	C72.494637,154.361145 72.702538,156.359360 73.024475,158.628433 
z"/>
<path fill="#4A305F" opacity="1.000000" stroke="none" 
	d="
M241.626678,156.980316 
	C241.967926,157.135468 241.984955,157.301819 242.041077,157.715790 
	C241.604172,158.306396 241.128174,158.649338 240.348740,159.023331 
	C240.031601,158.598633 240.017929,158.142914 240.004272,157.345734 
	C240.437012,157.000015 240.869751,156.995773 241.626678,156.980316 
z"/>
<path fill="#8A7B97" opacity="1.000000" stroke="none" 
	d="
M235.137115,183.777435 
	C232.093567,183.403549 232.735291,181.174026 233.421524,179.510651 
	C234.186874,177.655472 234.387360,175.426514 236.516052,173.969833 
	C237.061111,175.340149 236.957306,177.045975 239.581726,176.959991 
	C239.788208,177.822052 239.622879,178.669586 239.210388,179.735016 
	C238.485413,180.540283 237.922394,181.047089 237.218506,181.810379 
	C236.434998,182.515488 235.840256,183.009369 235.137115,183.777435 
z"/>
<path fill="#64616C" opacity="1.000000" stroke="none" 
	d="
M237.351501,181.977173 
	C237.049225,181.093506 237.330399,180.338593 238.646057,180.005676 
	C238.952347,180.885941 238.711761,181.669266 237.351501,181.977173 
z"/>
<path fill="#573E6A" opacity="1.000000" stroke="none" 
	d="
M87.714790,187.204041 
	C88.320030,187.520538 88.819778,188.002014 88.991005,188.580704 
	C89.566139,190.524429 91.230278,192.923279 88.760742,194.297165 
	C86.503418,195.553009 85.650208,192.742859 84.134247,191.254486 
	C85.311974,189.925156 87.197441,189.467438 87.714790,187.204041 
z"/>
<path fill="#8F7F9C" opacity="1.000000" stroke="none" 
	d="
M74.022621,172.631119 
	C73.527451,172.724884 73.034592,172.467056 72.288933,172.090744 
	C72.022644,171.528534 72.009148,171.084839 72.012451,170.307953 
	C73.476120,170.066193 74.029472,170.931335 74.022621,172.631119 
z"/>
<path fill="#ADA1B6" opacity="1.000000" stroke="none" 
	d="
M157.447891,41.948139 
	C155.954269,40.689777 154.726974,40.846527 153.229614,41.676117 
	C150.005905,41.921227 146.991989,41.916115 143.529449,41.890312 
	C142.421188,41.367493 141.676010,41.132523 140.852829,41.016300 
	C139.220886,40.785900 136.778687,41.533939 136.705582,38.915939 
	C136.643982,36.709999 139.137924,37.315559 140.748260,36.332138 
	C141.504227,36.092625 141.939362,36.079224 142.701385,36.081680 
	C146.981979,37.433212 150.921356,37.672283 154.974854,35.585438 
	C158.738007,35.200226 162.361359,35.173008 166.436340,35.173668 
	C170.178009,36.768799 173.681854,35.696449 177.074158,36.011974 
	C178.777969,36.170452 180.571274,36.247440 180.556610,38.513588 
	C180.541901,40.784500 178.724945,40.872875 177.030670,40.976627 
	C175.239929,41.086285 173.413788,40.752296 171.283600,41.614281 
	C166.573029,41.878380 162.243301,41.921783 157.447891,41.948139 
z"/>
<path fill="#92829F" opacity="1.000000" stroke="none" 
	d="
M171.365692,41.898048 
	C171.775681,39.030430 174.155487,40.352589 175.924545,39.999786 
	C177.255341,39.734386 179.551010,40.670162 179.577866,38.633987 
	C179.610535,36.154522 177.142395,37.283321 175.707916,37.009720 
	C172.884232,36.471157 169.786880,38.093063 167.026031,35.566685 
	C175.372498,34.486710 183.733383,35.545910 192.067383,36.968822 
	C192.971344,37.123154 194.355194,36.724834 194.453201,38.098785 
	C194.561813,39.622047 193.196609,39.808990 192.029419,39.975815 
	C185.325104,40.934017 178.660385,42.298698 171.365692,41.898048 
z"/>
<path fill="#92829F" opacity="1.000000" stroke="none" 
	d="
M140.611267,36.057129 
	C141.016800,38.417931 138.388657,37.491356 137.515091,38.914181 
	C138.670868,41.207508 141.808563,38.814823 142.978851,41.520672 
	C137.410080,42.741341 131.872086,41.118351 126.255241,40.970779 
	C125.049377,40.939098 123.649429,40.708580 123.534843,39.356411 
	C123.387329,37.615746 125.138382,37.215565 126.321587,37.169506 
	C130.954147,36.989178 135.465546,35.408535 140.611267,36.057129 
z"/>
</svg>